<svg width="192" height="186" viewBox="0 0 192 186" fill="none" xmlns="http://www.w3.org/2000/svg">
<path d="M55.5424 92.7611C55.5424 97.8746 56.5122 102.723 58.4518 107.308C60.3914 111.716 63.0362 115.595 66.3864 118.945C69.7366 122.296 73.6158 124.94 78.0239 126.88C82.6083 128.82 87.4573 129.789 92.5707 129.789C97.6841 129.789 102.445 128.82 106.853 126.88C111.438 124.94 115.405 122.296 118.755 118.945C122.105 115.595 124.75 111.716 126.69 107.308C128.629 102.723 129.599 97.8746 129.599 92.7611C129.599 87.6477 128.629 82.8869 126.69 78.4788C124.75 73.8943 122.105 69.927 118.755 66.5768C115.405 63.2267 111.438 60.5818 106.853 58.6422C102.445 56.7026 97.6841 55.7328 92.5707 55.7328C87.4573 55.7328 82.6083 56.7026 78.0239 58.6422C73.6158 60.5818 69.7366 63.2267 66.3864 66.5768C63.0362 69.927 60.3914 73.8943 58.4518 78.4788C56.5122 82.8869 55.5424 87.6477 55.5424 92.7611ZM92.5707 153.593C84.1071 153.593 76.1725 152.006 68.7668 148.833C61.5375 145.659 55.1016 141.339 49.4592 135.873C43.9931 130.23 39.6732 123.794 36.4993 116.565C33.3255 109.159 31.7385 101.225 31.7385 92.7611C31.7385 84.2975 33.3255 76.4511 36.4993 69.2217C39.6732 61.8161 43.9931 55.3802 49.4592 49.9141C55.1016 44.2717 61.5375 39.8636 68.7668 36.6897C76.1725 33.5159 84.1071 31.929 92.5707 31.929C101.034 31.929 108.881 33.5159 116.11 36.6897C123.516 39.8636 129.952 44.2717 135.418 49.9141C141.06 55.3802 145.468 61.8161 148.642 69.2217C151.816 76.4511 153.403 84.2975 153.403 92.7611C153.403 101.225 151.816 109.159 148.642 116.565C145.468 123.794 141.06 130.23 135.418 135.873C129.952 141.339 123.516 145.659 116.11 148.833C108.881 152.006 101.034 153.593 92.5707 153.593ZM0 92.7611C0 80.0657 2.38039 68.0756 7.14117 56.7908C12.0783 45.506 18.6905 35.7199 26.9778 27.4327C35.4414 18.9691 45.3156 12.3569 56.6004 7.59608C67.8852 2.65898 79.8753 0.19043 92.5707 0.19043C105.266 0.19043 117.256 2.65898 128.541 7.59608C139.826 12.3569 149.612 18.9691 157.899 27.4327C166.363 35.7199 172.975 45.506 177.736 56.7908C182.673 68.0756 185.141 80.0657 185.141 92.7611C185.141 100.343 184.26 107.661 182.497 114.714C180.733 121.767 178.265 128.379 175.091 134.55H191.489L167.685 180.836H120.871C111.526 183.833 102.092 185.332 92.5707 185.332C79.8753 185.332 67.8852 182.951 56.6004 178.191C45.3156 173.254 35.4414 166.641 26.9778 158.354C18.6905 149.89 12.0783 140.016 7.14117 128.731C2.38039 117.447 0 105.457 0 92.7611ZM121.135 154.122C126.954 151.477 132.244 148.039 137.005 143.807C141.765 139.575 145.821 134.815 149.171 129.525C152.698 124.235 155.431 118.505 157.37 112.333C159.31 105.986 160.28 99.4615 160.28 92.7611C160.28 83.4159 158.516 74.6878 154.99 66.5768C151.463 58.2896 146.614 51.0602 140.443 44.8889C134.272 38.7175 127.042 33.8685 118.755 30.342C110.644 26.8155 101.916 25.0523 92.5707 25.0523C83.2255 25.0523 74.4092 26.8155 66.1219 30.342C58.011 33.8685 50.8698 38.7175 44.6984 44.8889C38.5271 51.0602 33.6781 58.2896 30.1516 66.5768C26.6251 74.6878 24.8618 83.4159 24.8618 92.7611C24.8618 102.106 26.6251 110.923 30.1516 119.21C33.6781 127.321 38.5271 134.462 44.6984 140.633C50.8698 146.805 58.0991 151.654 66.3864 155.18C74.85 158.707 83.9308 160.47 93.6287 160.47H161.073L164.247 154.122H121.135Z" fill="#3545E9"/>
</svg>
